<svg id="visual" viewBox="0 0 960 540" width="960" height="540" xmlns="http://www.w3.org/2000/svg" xmlns:xlink="http://www.w3.org/1999/xlink" version="1.1"><rect x="0" y="0" width="960" height="540" fill="#001220"></rect><defs><linearGradient id="grad1_0" x1="43.8%" y1="0%" x2="100%" y2="100%"><stop offset="14.444444444444446%" stop-color="#001220" stop-opacity="1"></stop><stop offset="85.55555555555554%" stop-color="#001220" stop-opacity="1"></stop></linearGradient></defs><defs><linearGradient id="grad2_0" x1="0%" y1="0%" x2="56.3%" y2="100%"><stop offset="14.444444444444446%" stop-color="#001220" stop-opacity="1"></stop><stop offset="85.55555555555554%" stop-color="#001220" stop-opacity="1"></stop></linearGradient></defs><g transform="translate(960, 0)"><path d="M0 486C-29.2 395.5 -58.4 305 -121.7 293.8C-185 282.6 -282.5 350.5 -343.7 343.7C-404.8 336.8 -429.5 255 -447.2 185.2C-464.8 115.5 -475.4 57.7 -486 0L0 0Z" fill="#FBAE3C"></path></g><g transform="translate(0, 540)"><path d="M0 -486C31.8 -411 63.6 -335.9 135.1 -326.1C206.6 -316.3 317.8 -371.8 343.7 -343.7C369.5 -315.5 310.2 -203.6 319.7 -132.4C329.2 -61.2 407.6 -30.6 486 0L0 0Z" fill="#FBAE3C"></path></g></svg>