<svg id="visual" viewBox="0 0 960 540" width="960" height="540" xmlns="http://www.w3.org/2000/svg" xmlns:xlink="http://www.w3.org/1999/xlink" version="1.1"><rect x="0" y="0" width="960" height="540" fill="#001220"></rect><path d="M0 353L22.8 365.5C45.7 378 91.3 403 137 414C182.7 425 228.3 422 274 408C319.7 394 365.3 369 411.2 370C457 371 503 398 548.8 399.7C594.7 401.3 640.3 377.7 686 379.5C731.7 381.3 777.3 408.7 823 411.2C868.7 413.7 914.3 391.3 937.2 380.2L960 369L960 541L937.2 541C914.3 541 868.7 541 823 541C777.3 541 731.7 541 686 541C640.3 541 594.7 541 548.8 541C503 541 457 541 411.2 541C365.3 541 319.7 541 274 541C228.3 541 182.7 541 137 541C91.3 541 45.7 541 22.8 541L0 541Z" fill="#D53867" stroke-linecap="round" stroke-linejoin="miter"></path></svg>