<svg id="visual" viewBox="0 0 960 540" width="960" height="540" xmlns="http://www.w3.org/2000/svg" xmlns:xlink="http://www.w3.org/1999/xlink" version="1.1">
<rect x="0" y="0" width="960" height="540" fill="#001220"></rect>
<path d="M0 202L22.8 202.3C45.7 202.7 91.3 203.3 137 195.8C182.7 188.3 228.3 172.7 274 172.5C319.7 172.3 365.3 187.7 411.2 184C457 180.3 503 157.7 548.8 156C594.7 154.3 640.3 173.7 686 186.7C731.7 199.7 777.3 206.3 823 204.5C868.7 202.7 914.3 192.3 937.2 187.2L960 182L960 0L937.2 0C914.3 0 868.7 0 823 0C777.3 0 731.7 0 686 0C640.3 0 594.7 0 548.8 0C503 0 457 0 411.2 0C365.3 0 319.7 0 274 0C228.3 0 182.7 0 137 0C91.3 0 45.7 0 22.8 0L0 0Z" fill="#c62368">
</path><path d="M0 123L22.8 125.3C45.7 127.7 91.3 132.3 137 135.5C182.7 138.7 228.3 140.3 274 136.3C319.7 132.3 365.3 122.7 411.2 128C457 133.3 503 153.7 548.8 157.3C594.7 161 640.3 148 686 147.5C731.7 147 777.3 159 823 157.5C868.7 156 914.3 141 937.2 133.5L960 126L960 0L937.2 0C914.3 0 868.7 0 823 0C777.3 0 731.7 0 686 0C640.3 0 594.7 0 548.8 0C503 0 457 0 411.2 0C365.3 0 319.7 0 274 0C228.3 0 182.7 0 137 0C91.3 0 45.7 0 22.8 0L0 0Z" fill="#d53867">
</path>
<path d="M0 98L22.8 103.7C45.7 109.3 91.3 120.7 137 118.5C182.7 116.3 228.3 100.7 274 101C319.7 101.3 365.3 117.7 411.2 123.3C457 129 503 124 548.8 116.7C594.7 109.3 640.3 99.7 686 101.2C731.7 102.7 777.3 115.3 823 122.5C868.7 129.7 914.3 131.3 937.2 132.2L960 133L960 0L937.2 0C914.3 0 868.7 0 823 0C777.3 0 731.7 0 686 0C640.3 0 594.7 0 548.8 0C503 0 457 0 411.2 0C365.3 0 319.7 0 274 0C228.3 0 182.7 0 137 0C91.3 0 45.7 0 22.8 0L0 0Z" fill="#e34c67"></path>
<path d="M0 104L22.8 98C45.7 92 91.3 80 137 73.3C182.7 66.7 228.3 65.3 274 70.5C319.7 75.7 365.3 87.3 411.2 89.5C457 91.7 503 84.3 548.8 76.7C594.7 69 640.3 61 686 58C731.7 55 777.3 57 823 65.5C868.7 74 914.3 89 937.2 96.5L960 104L960 0L937.2 0C914.3 0 868.7 0 823 0C777.3 0 731.7 0 686 0C640.3 0 594.7 0 548.8 0C503 0 457 0 411.2 0C365.3 0 319.7 0 274 0C228.3 0 182.7 0 137 0C91.3 0 45.7 0 22.8 0L0 0Z" fill="#ef5f67"></path>
<path d="M0 34L22.8 36.3C45.7 38.7 91.3 43.3 137 42.2C182.7 41 228.3 34 274 30.7C319.7 27.3 365.3 27.7 411.2 28.8C457 30 503 32 548.8 37.7C594.7 43.3 640.3 52.7 686 56.2C731.7 59.7 777.3 57.3 823 52.8C868.7 48.3 914.3 41.7 937.2 38.3L960 35L960 0L937.2 0C914.3 0 868.7 0 823 0C777.3 0 731.7 0 686 0C640.3 0 594.7 0 548.8 0C503 0 457 0 411.2 0C365.3 0 319.7 0 274 0C228.3 0 182.7 0 137 0C91.3 0 45.7 0 22.8 0L0 0Z" fill="#fa7268">
</path>
</svg>